<mxfile host="Electron" agent="Mozilla/5.0 (Windows NT 10.0; Win64; x64) AppleWebKit/537.36 (KHTML, like Gecko) draw.io/24.7.17 Chrome/128.0.6613.36 Electron/32.0.1 Safari/537.36" version="24.7.17">
  <diagram name="Page-1" id="W8L-sSmFb-0n0prrQMqT">
    <mxGraphModel dx="868" dy="1892" grid="1" gridSize="10" guides="1" tooltips="1" connect="1" arrows="1" fold="1" page="1" pageScale="1" pageWidth="850" pageHeight="1100" math="0" shadow="0">
      <root>
        <mxCell id="0" />
        <mxCell id="1" parent="0" />
        <mxCell id="DQpFK17N5yTxvYXPTMN0-1" value="&lt;i&gt;KetegoriOrder&lt;/i&gt;" style="swimlane;fontStyle=1;align=center;verticalAlign=top;childLayout=stackLayout;horizontal=1;startSize=26;horizontalStack=0;resizeParent=1;resizeParentMax=0;resizeLast=0;collapsible=1;marginBottom=0;whiteSpace=wrap;html=1;" vertex="1" parent="1">
          <mxGeometry x="225" y="-100" width="280" height="240" as="geometry" />
        </mxCell>
        <mxCell id="DQpFK17N5yTxvYXPTMN0-2" value="- tanggalOlder : LocalDate&lt;div&gt;- namaOrder : String&lt;/div&gt;&lt;div&gt;- statusOrder : String&lt;/div&gt;&lt;div&gt;- nomorOrder : Int&lt;/div&gt;" style="text;strokeColor=none;fillColor=none;align=left;verticalAlign=top;spacingLeft=4;spacingRight=4;overflow=hidden;rotatable=0;points=[[0,0.5],[1,0.5]];portConstraint=eastwest;whiteSpace=wrap;html=1;" vertex="1" parent="DQpFK17N5yTxvYXPTMN0-1">
          <mxGeometry y="26" width="280" height="64" as="geometry" />
        </mxCell>
        <mxCell id="DQpFK17N5yTxvYXPTMN0-3" value="" style="line;strokeWidth=1;fillColor=none;align=left;verticalAlign=middle;spacingTop=-1;spacingLeft=3;spacingRight=3;rotatable=0;labelPosition=right;points=[];portConstraint=eastwest;strokeColor=inherit;" vertex="1" parent="DQpFK17N5yTxvYXPTMN0-1">
          <mxGeometry y="90" width="280" height="8" as="geometry" />
        </mxCell>
        <mxCell id="DQpFK17N5yTxvYXPTMN0-4" value="+ getTanggalOrder() : LocalDate&lt;div&gt;+ setTanggalOrder(LocalDate : tanggalOrder):void&lt;/div&gt;&lt;div&gt;+ getNamaOrder() : String&lt;/div&gt;&lt;div&gt;+ setNamaOrder(String: namaOrder) : void&lt;/div&gt;&lt;div&gt;+ getStatusOrder(): String&lt;/div&gt;&lt;div&gt;+ setStatusOrder(String statusOrder) : void&lt;/div&gt;&lt;div&gt;+ gerNomorOrder(): int&lt;/div&gt;&lt;div&gt;+ setNomorOrder(int: nomorOrder) : void&lt;/div&gt;&lt;div&gt;+&amp;nbsp;&lt;span style=&quot;background-color: initial;&quot;&gt;&lt;i&gt;konfirmasiOrder(): void&lt;/i&gt;&lt;/span&gt;&lt;/div&gt;&lt;span class=&quot;hljs-params&quot;&gt;&lt;/span&gt;" style="text;strokeColor=none;fillColor=none;align=left;verticalAlign=top;spacingLeft=4;spacingRight=4;overflow=hidden;rotatable=0;points=[[0,0.5],[1,0.5]];portConstraint=eastwest;whiteSpace=wrap;html=1;" vertex="1" parent="DQpFK17N5yTxvYXPTMN0-1">
          <mxGeometry y="98" width="280" height="142" as="geometry" />
        </mxCell>
        <mxCell id="DQpFK17N5yTxvYXPTMN0-5" value="MailOrder" style="swimlane;fontStyle=1;align=center;verticalAlign=top;childLayout=stackLayout;horizontal=1;startSize=26;horizontalStack=0;resizeParent=1;resizeParentMax=0;resizeLast=0;collapsible=1;marginBottom=0;whiteSpace=wrap;html=1;" vertex="1" parent="1">
          <mxGeometry x="10" y="250" width="290" height="130" as="geometry" />
        </mxCell>
        <mxCell id="DQpFK17N5yTxvYXPTMN0-6" value="- trackingNumber : String" style="text;strokeColor=none;fillColor=none;align=left;verticalAlign=top;spacingLeft=4;spacingRight=4;overflow=hidden;rotatable=0;points=[[0,0.5],[1,0.5]];portConstraint=eastwest;whiteSpace=wrap;html=1;" vertex="1" parent="DQpFK17N5yTxvYXPTMN0-5">
          <mxGeometry y="26" width="290" height="26" as="geometry" />
        </mxCell>
        <mxCell id="DQpFK17N5yTxvYXPTMN0-7" value="" style="line;strokeWidth=1;fillColor=none;align=left;verticalAlign=middle;spacingTop=-1;spacingLeft=3;spacingRight=3;rotatable=0;labelPosition=right;points=[];portConstraint=eastwest;strokeColor=inherit;" vertex="1" parent="DQpFK17N5yTxvYXPTMN0-5">
          <mxGeometry y="52" width="290" height="8" as="geometry" />
        </mxCell>
        <mxCell id="DQpFK17N5yTxvYXPTMN0-8" value="&lt;div&gt;+ getTrackingNumber() : String&lt;/div&gt;&lt;div&gt;+ setTrackingNumber(String trackingNumber): void&lt;/div&gt;+ konfirmasiOrder(): void&lt;div&gt;+&amp;nbsp;trackStatus():void&lt;br&gt;&lt;/div&gt;" style="text;strokeColor=none;fillColor=none;align=left;verticalAlign=top;spacingLeft=4;spacingRight=4;overflow=hidden;rotatable=0;points=[[0,0.5],[1,0.5]];portConstraint=eastwest;whiteSpace=wrap;html=1;" vertex="1" parent="DQpFK17N5yTxvYXPTMN0-5">
          <mxGeometry y="60" width="290" height="70" as="geometry" />
        </mxCell>
        <mxCell id="DQpFK17N5yTxvYXPTMN0-9" value="WebOrder" style="swimlane;fontStyle=1;align=center;verticalAlign=top;childLayout=stackLayout;horizontal=1;startSize=26;horizontalStack=0;resizeParent=1;resizeParentMax=0;resizeLast=0;collapsible=1;marginBottom=0;whiteSpace=wrap;html=1;" vertex="1" parent="1">
          <mxGeometry x="360" y="250" width="160" height="130" as="geometry" />
        </mxCell>
        <mxCell id="DQpFK17N5yTxvYXPTMN0-10" value="-&amp;nbsp;deliveryURL : String" style="text;strokeColor=none;fillColor=none;align=left;verticalAlign=top;spacingLeft=4;spacingRight=4;overflow=hidden;rotatable=0;points=[[0,0.5],[1,0.5]];portConstraint=eastwest;whiteSpace=wrap;html=1;" vertex="1" parent="DQpFK17N5yTxvYXPTMN0-9">
          <mxGeometry y="26" width="160" height="26" as="geometry" />
        </mxCell>
        <mxCell id="DQpFK17N5yTxvYXPTMN0-11" value="" style="line;strokeWidth=1;fillColor=none;align=left;verticalAlign=middle;spacingTop=-1;spacingLeft=3;spacingRight=3;rotatable=0;labelPosition=right;points=[];portConstraint=eastwest;strokeColor=inherit;" vertex="1" parent="DQpFK17N5yTxvYXPTMN0-9">
          <mxGeometry y="52" width="160" height="8" as="geometry" />
        </mxCell>
        <mxCell id="DQpFK17N5yTxvYXPTMN0-12" value="+ getDeliveruURL(): String&lt;div&gt;+ setDeliveryURL(): String&lt;/div&gt;&lt;div&gt;+ konfirmasiOrder(): void&lt;/div&gt;&lt;div&gt;+&amp;nbsp;trackStatus():void&lt;br&gt;&lt;/div&gt;" style="text;strokeColor=none;fillColor=none;align=left;verticalAlign=top;spacingLeft=4;spacingRight=4;overflow=hidden;rotatable=0;points=[[0,0.5],[1,0.5]];portConstraint=eastwest;whiteSpace=wrap;html=1;" vertex="1" parent="DQpFK17N5yTxvYXPTMN0-9">
          <mxGeometry y="60" width="160" height="70" as="geometry" />
        </mxCell>
        <mxCell id="DQpFK17N5yTxvYXPTMN0-13" value="WhatsappOrder" style="swimlane;fontStyle=1;align=center;verticalAlign=top;childLayout=stackLayout;horizontal=1;startSize=26;horizontalStack=0;resizeParent=1;resizeParentMax=0;resizeLast=0;collapsible=1;marginBottom=0;whiteSpace=wrap;html=1;" vertex="1" parent="1">
          <mxGeometry x="570" y="240" width="160" height="120" as="geometry" />
        </mxCell>
        <mxCell id="DQpFK17N5yTxvYXPTMN0-14" value="- nomorWA : String" style="text;strokeColor=none;fillColor=none;align=left;verticalAlign=top;spacingLeft=4;spacingRight=4;overflow=hidden;rotatable=0;points=[[0,0.5],[1,0.5]];portConstraint=eastwest;whiteSpace=wrap;html=1;" vertex="1" parent="DQpFK17N5yTxvYXPTMN0-13">
          <mxGeometry y="26" width="160" height="26" as="geometry" />
        </mxCell>
        <mxCell id="DQpFK17N5yTxvYXPTMN0-15" value="" style="line;strokeWidth=1;fillColor=none;align=left;verticalAlign=middle;spacingTop=-1;spacingLeft=3;spacingRight=3;rotatable=0;labelPosition=right;points=[];portConstraint=eastwest;strokeColor=inherit;" vertex="1" parent="DQpFK17N5yTxvYXPTMN0-13">
          <mxGeometry y="52" width="160" height="8" as="geometry" />
        </mxCell>
        <mxCell id="DQpFK17N5yTxvYXPTMN0-16" value="+ getNomorWA(): String&lt;div&gt;+ setNomorWA(): String&lt;/div&gt;&lt;div&gt;+ konfirmasiOrder(): void&lt;/div&gt;" style="text;strokeColor=none;fillColor=none;align=left;verticalAlign=top;spacingLeft=4;spacingRight=4;overflow=hidden;rotatable=0;points=[[0,0.5],[1,0.5]];portConstraint=eastwest;whiteSpace=wrap;html=1;" vertex="1" parent="DQpFK17N5yTxvYXPTMN0-13">
          <mxGeometry y="60" width="160" height="60" as="geometry" />
        </mxCell>
        <mxCell id="DQpFK17N5yTxvYXPTMN0-17" style="rounded=0;orthogonalLoop=1;jettySize=auto;html=1;" edge="1" parent="1" source="DQpFK17N5yTxvYXPTMN0-5" target="DQpFK17N5yTxvYXPTMN0-4">
          <mxGeometry relative="1" as="geometry" />
        </mxCell>
        <mxCell id="DQpFK17N5yTxvYXPTMN0-18" style="rounded=0;orthogonalLoop=1;jettySize=auto;html=1;entryX=0.425;entryY=1.002;entryDx=0;entryDy=0;entryPerimeter=0;" edge="1" parent="1" source="DQpFK17N5yTxvYXPTMN0-9" target="DQpFK17N5yTxvYXPTMN0-4">
          <mxGeometry relative="1" as="geometry" />
        </mxCell>
        <mxCell id="DQpFK17N5yTxvYXPTMN0-19" style="rounded=0;orthogonalLoop=1;jettySize=auto;html=1;entryX=0.595;entryY=1.024;entryDx=0;entryDy=0;entryPerimeter=0;" edge="1" parent="1" source="DQpFK17N5yTxvYXPTMN0-13" target="DQpFK17N5yTxvYXPTMN0-4">
          <mxGeometry relative="1" as="geometry">
            <mxPoint x="470" y="110" as="targetPoint" />
          </mxGeometry>
        </mxCell>
        <mxCell id="DQpFK17N5yTxvYXPTMN0-24" value="&lt;p style=&quot;margin:0px;margin-top:4px;text-align:center;&quot;&gt;&lt;i&gt;&amp;lt;&amp;lt;Interface&amp;gt;&amp;gt;&lt;/i&gt;&lt;br&gt;&lt;b&gt;PelacakanStatusOrder&lt;br&gt;&lt;/b&gt;&lt;/p&gt;&lt;hr size=&quot;1&quot; style=&quot;border-style:solid;&quot;&gt;&lt;p style=&quot;margin:0px;margin-left:4px;&quot;&gt;&lt;br&gt;&lt;/p&gt;&lt;hr size=&quot;1&quot; style=&quot;border-style:solid;&quot;&gt;&lt;p style=&quot;margin:0px;margin-left:4px;&quot;&gt;+&amp;nbsp;trackStatus():void &lt;/p&gt;" style="verticalAlign=top;align=left;overflow=fill;html=1;whiteSpace=wrap;" vertex="1" parent="1">
          <mxGeometry x="210" y="470" width="190" height="100" as="geometry" />
        </mxCell>
        <mxCell id="DQpFK17N5yTxvYXPTMN0-25" value="" style="endArrow=block;dashed=1;endFill=0;endSize=12;html=1;rounded=0;exitX=0.494;exitY=1.013;exitDx=0;exitDy=0;exitPerimeter=0;" edge="1" parent="1" source="DQpFK17N5yTxvYXPTMN0-12" target="DQpFK17N5yTxvYXPTMN0-24">
          <mxGeometry width="160" relative="1" as="geometry">
            <mxPoint x="370" y="390" as="sourcePoint" />
            <mxPoint x="530" y="390" as="targetPoint" />
          </mxGeometry>
        </mxCell>
        <mxCell id="DQpFK17N5yTxvYXPTMN0-26" value="" style="endArrow=block;dashed=1;endFill=0;endSize=12;html=1;rounded=0;exitX=0.454;exitY=1.064;exitDx=0;exitDy=0;exitPerimeter=0;entryX=0.407;entryY=0.007;entryDx=0;entryDy=0;entryPerimeter=0;" edge="1" parent="1" source="DQpFK17N5yTxvYXPTMN0-8" target="DQpFK17N5yTxvYXPTMN0-24">
          <mxGeometry width="160" relative="1" as="geometry">
            <mxPoint x="434" y="346" as="sourcePoint" />
            <mxPoint x="434" y="410" as="targetPoint" />
          </mxGeometry>
        </mxCell>
      </root>
    </mxGraphModel>
  </diagram>
</mxfile>
